<svg xmlns="http://www.w3.org/2000/svg" viewBox="0 0 256 196.7" style="enable-background:new 0 0 256 196.7" xml:space="preserve"><path d="M127.5 194.9c12 0 21.9-8.6 24-20h-48c2.1 11.4 12 20 24 20zm80-60.2c-8.5-8.5-19-12.6-19-53.8 0-30.3-22.1-55.4-51-60.2H136c1.8-2 3-4.7 3-7.7 0-6.3-5.1-11.4-11.4-11.4-6.3 0-11.4 5.1-11.4 11.4 0 3 1.1 5.7 3 7.7h-1.6c-28.9 4.8-51 29.9-51 60.2 0 41.2-10.5 45.3-19 53.8-11.7 11.5-3.5 31.3 12.8 31.3h134.2c16.3 0 24.5-19.8 12.9-31.3zM10.8 69.2c0 14.5 5.3 28.5 15.1 39.8l-6.8 6.8c-11.5-12.4-18-29.1-18-46.3 0-17.3 6.6-34 18.2-46.2l6.8 6.8c-10 11-15.3 24.5-15.3 39.1zm17.2.3c0-10.3 3.6-19.8 10.4-27.8l6.8 6.8c-4.9 6-7.4 13.1-7.4 20.8 0 7.7 2.6 15 7.4 20.8l-6.8 6.8C31.6 89.3 28 79.7 28 69.5zm202-39.4 6.8-6.8C248.4 35.5 255 52.1 255 69.5c0 17.2-6.5 33.9-18 46.3l-6.8-6.8c9.7-11.2 15.1-25.2 15.1-39.8 0-14.6-5.3-28.1-15.3-39.1zm-12.2 66.7L211 90c4.8-5.8 7.4-13.1 7.4-20.8 0-7.6-2.6-14.8-7.4-20.8l6.8-6.8c6.8 8 10.4 17.5 10.4 27.8s-3.7 19.9-10.4 27.4z"/></svg>